<svg xmlns="http://www.w3.org/2000/svg" xmlns:xlink="http://www.w3.org/1999/xlink" width="1080" zoomAndPan="magnify" viewBox="0 0 810 809.999993" height="1080" preserveAspectRatio="xMidYMid meet" version="1.0"><path fill="#dfdfdf" d="M 810 405 C 810 411.628906 809.835938 418.253906 809.511719 424.871094 C 809.1875 431.492188 808.699219 438.101562 808.050781 444.695312 C 807.398438 451.292969 806.589844 457.871094 805.617188 464.425781 C 804.644531 470.980469 803.511719 477.511719 802.21875 484.011719 C 800.925781 490.511719 799.472656 496.976562 797.863281 503.40625 C 796.253906 509.835938 794.484375 516.222656 792.5625 522.566406 C 790.636719 528.90625 788.558594 535.199219 786.324219 541.441406 C 784.09375 547.679688 781.707031 553.863281 779.171875 559.988281 C 776.632812 566.109375 773.949219 572.167969 771.117188 578.160156 C 768.28125 584.152344 765.300781 590.070312 762.179688 595.914062 C 759.054688 601.761719 755.789062 607.527344 752.378906 613.210938 C 748.972656 618.898438 745.425781 624.496094 741.746094 630.007812 C 738.0625 635.515625 734.246094 640.933594 730.300781 646.257812 C 726.351562 651.582031 722.273438 656.804688 718.070312 661.929688 C 713.863281 667.054688 709.535156 672.070312 705.085938 676.980469 C 700.632812 681.890625 696.066406 686.691406 691.378906 691.378906 C 686.691406 696.066406 681.890625 700.632812 676.980469 705.085938 C 672.070312 709.535156 667.054688 713.863281 661.929688 718.070312 C 656.804688 722.273438 651.582031 726.351562 646.257812 730.300781 C 640.933594 734.246094 635.515625 738.0625 630.007812 741.746094 C 624.496094 745.425781 618.898438 748.972656 613.210938 752.378906 C 607.527344 755.789062 601.761719 759.054688 595.914062 762.179688 C 590.070312 765.300781 584.152344 768.28125 578.160156 771.117188 C 572.167969 773.949219 566.109375 776.632812 559.988281 779.171875 C 553.863281 781.707031 547.679688 784.09375 541.441406 786.324219 C 535.199219 788.558594 528.90625 790.636719 522.566406 792.5625 C 516.222656 794.484375 509.835938 796.253906 503.40625 797.863281 C 496.976562 799.472656 490.511719 800.925781 484.011719 802.21875 C 477.511719 803.511719 470.980469 804.644531 464.425781 805.617188 C 457.871094 806.589844 451.292969 807.398438 444.695312 808.050781 C 438.101562 808.699219 431.492188 809.1875 424.871094 809.511719 C 418.253906 809.835938 411.628906 810 405 810 C 398.371094 810 391.746094 809.835938 385.128906 809.511719 C 378.507812 809.1875 371.898438 808.699219 365.304688 808.050781 C 358.707031 807.398438 352.128906 806.589844 345.574219 805.617188 C 339.019531 804.644531 332.488281 803.511719 325.988281 802.21875 C 319.488281 800.925781 313.023438 799.472656 306.59375 797.863281 C 300.164062 796.253906 293.777344 794.484375 287.433594 792.5625 C 281.09375 790.636719 274.800781 788.558594 268.558594 786.324219 C 262.320312 784.09375 256.136719 781.707031 250.011719 779.171875 C 243.890625 776.632812 237.832031 773.949219 231.839844 771.117188 C 225.847656 768.28125 219.929688 765.300781 214.085938 762.179688 C 208.238281 759.054688 202.472656 755.789062 196.789062 752.378906 C 191.101562 748.972656 185.503906 745.425781 179.992188 741.746094 C 174.484375 738.0625 169.066406 734.246094 163.742188 730.300781 C 158.417969 726.351562 153.195312 722.273438 148.070312 718.070312 C 142.945312 713.863281 137.929688 709.535156 133.019531 705.085938 C 128.109375 700.632812 123.308594 696.066406 118.621094 691.378906 C 113.933594 686.691406 109.367188 681.890625 104.914062 676.980469 C 100.464844 672.070312 96.136719 667.054688 91.929688 661.929688 C 87.726562 656.804688 83.648438 651.582031 79.699219 646.257812 C 75.753906 640.933594 71.9375 635.515625 68.253906 630.007812 C 64.574219 624.496094 61.027344 618.898438 57.621094 613.210938 C 54.210938 607.527344 50.945312 601.761719 47.820312 595.914062 C 44.699219 590.070312 41.71875 584.152344 38.882812 578.160156 C 36.050781 572.167969 33.367188 566.109375 30.828125 559.988281 C 28.292969 553.863281 25.90625 547.679688 23.675781 541.441406 C 21.441406 535.199219 19.363281 528.90625 17.4375 522.566406 C 15.515625 516.222656 13.746094 509.835938 12.136719 503.40625 C 10.527344 496.976562 9.074219 490.511719 7.78125 484.011719 C 6.488281 477.511719 5.355469 470.980469 4.382812 464.425781 C 3.410156 457.871094 2.601562 451.292969 1.949219 444.695312 C 1.300781 438.101562 0.8125 431.492188 0.488281 424.871094 C 0.164062 418.253906 0 411.628906 0 405 C 0 398.371094 0.164062 391.746094 0.488281 385.128906 C 0.8125 378.507812 1.300781 371.898438 1.949219 365.304688 C 2.601562 358.707031 3.410156 352.128906 4.382812 345.574219 C 5.355469 339.019531 6.488281 332.488281 7.78125 325.988281 C 9.074219 319.488281 10.527344 313.023438 12.136719 306.59375 C 13.746094 300.164062 15.515625 293.777344 17.4375 287.433594 C 19.363281 281.09375 21.441406 274.800781 23.675781 268.558594 C 25.90625 262.320312 28.292969 256.136719 30.828125 250.011719 C 33.367188 243.890625 36.050781 237.832031 38.882812 231.839844 C 41.71875 225.847656 44.699219 219.929688 47.820312 214.085938 C 50.945312 208.238281 54.210938 202.472656 57.621094 196.789062 C 61.027344 191.101562 64.574219 185.503906 68.253906 179.992188 C 71.9375 174.484375 75.753906 169.066406 79.699219 163.742188 C 83.648438 158.417969 87.726562 153.195312 91.929688 148.070312 C 96.136719 142.945312 100.464844 137.929688 104.914062 133.019531 C 109.367188 128.109375 113.933594 123.308594 118.621094 118.621094 C 123.308594 113.933594 128.109375 109.367188 133.019531 104.914062 C 137.929688 100.464844 142.945312 96.136719 148.070312 91.929688 C 153.195312 87.726562 158.417969 83.648438 163.742188 79.699219 C 169.066406 75.753906 174.484375 71.9375 179.992188 68.253906 C 185.503906 64.574219 191.101562 61.027344 196.789062 57.621094 C 202.472656 54.210938 208.238281 50.945312 214.085938 47.820312 C 219.929688 44.699219 225.847656 41.71875 231.839844 38.882812 C 237.832031 36.050781 243.890625 33.367188 250.011719 30.828125 C 256.136719 28.292969 262.320312 25.90625 268.558594 23.675781 C 274.800781 21.441406 281.09375 19.363281 287.433594 17.4375 C 293.777344 15.515625 300.164062 13.746094 306.59375 12.136719 C 313.023438 10.527344 319.488281 9.074219 325.988281 7.78125 C 332.488281 6.488281 339.019531 5.355469 345.574219 4.382812 C 352.128906 3.410156 358.707031 2.601562 365.304688 1.949219 C 371.898438 1.300781 378.507812 0.8125 385.128906 0.488281 C 391.746094 0.164062 398.371094 0 405 0 C 411.628906 0 418.253906 0.164062 424.871094 0.488281 C 431.492188 0.8125 438.101562 1.300781 444.695312 1.949219 C 451.292969 2.601562 457.871094 3.410156 464.425781 4.382812 C 470.980469 5.355469 477.511719 6.488281 484.011719 7.78125 C 490.511719 9.074219 496.976562 10.527344 503.40625 12.136719 C 509.835938 13.746094 516.222656 15.515625 522.566406 17.4375 C 528.90625 19.363281 535.199219 21.441406 541.441406 23.675781 C 547.679688 25.90625 553.863281 28.292969 559.988281 30.828125 C 566.109375 33.367188 572.167969 36.050781 578.160156 38.882812 C 584.152344 41.71875 590.070312 44.699219 595.914062 47.820312 C 601.761719 50.945312 607.527344 54.210938 613.210938 57.621094 C 618.898438 61.027344 624.496094 64.574219 630.007812 68.253906 C 635.515625 71.9375 640.933594 75.753906 646.257812 79.699219 C 651.582031 83.648438 656.804688 87.726562 661.929688 91.929688 C 667.054688 96.136719 672.070312 100.464844 676.980469 104.914062 C 681.890625 109.367188 686.691406 113.933594 691.378906 118.621094 C 696.066406 123.308594 700.632812 128.109375 705.085938 133.019531 C 709.535156 137.929688 713.863281 142.945312 718.070312 148.070312 C 722.273438 153.195312 726.351562 158.417969 730.300781 163.742188 C 734.246094 169.066406 738.0625 174.484375 741.746094 179.992188 C 745.425781 185.503906 748.972656 191.101562 752.378906 196.789062 C 755.789062 202.472656 759.054688 208.238281 762.179688 214.085938 C 765.300781 219.929688 768.28125 225.847656 771.117188 231.839844 C 773.949219 237.832031 776.632812 243.890625 779.171875 250.011719 C 781.707031 256.136719 784.09375 262.320312 786.324219 268.558594 C 788.558594 274.800781 790.636719 281.09375 792.5625 287.433594 C 794.484375 293.777344 796.253906 300.164062 797.863281 306.59375 C 799.472656 313.023438 800.925781 319.488281 802.21875 325.988281 C 803.511719 332.488281 804.644531 339.019531 805.617188 345.574219 C 806.589844 352.128906 807.398438 358.707031 808.050781 365.304688 C 808.699219 371.898438 809.1875 378.507812 809.511719 385.128906 C 809.835938 391.746094 810 398.371094 810 405 Z M 810 405 " fill-opacity="1" fill-rule="nonzero"/><path fill="#d8d8d8" d="M 322.378906 315.898438 C 322.378906 317.863281 322.363281 319.824219 322.332031 321.78125 C 322.300781 323.742188 322.253906 325.699219 322.1875 327.648438 C 322.125 329.601562 322.046875 331.550781 321.949219 333.488281 C 321.855469 335.429688 321.742188 337.363281 321.617188 339.289062 C 321.492188 341.210938 321.347656 343.125 321.191406 345.027344 C 321.03125 346.929688 320.859375 348.820312 320.671875 350.699219 C 320.480469 352.578125 320.277344 354.4375 320.058594 356.285156 C 319.839844 358.132812 319.605469 359.964844 319.359375 361.777344 C 319.109375 363.589844 318.847656 365.382812 318.570312 367.15625 C 318.292969 368.929688 318 370.679688 317.695312 372.410156 C 317.386719 374.140625 317.066406 375.847656 316.734375 377.53125 C 316.398438 379.214844 316.050781 380.871094 315.691406 382.5 C 315.332031 384.132812 314.957031 385.738281 314.570312 387.3125 C 314.183594 388.886719 313.78125 390.433594 313.371094 391.949219 C 312.957031 393.46875 312.535156 394.953125 312.097656 396.40625 C 311.660156 397.859375 311.214844 399.28125 310.753906 400.667969 C 310.296875 402.054688 309.824219 403.40625 309.34375 404.726562 C 308.863281 406.042969 308.371094 407.324219 307.867188 408.570312 C 307.367188 409.8125 306.855469 411.019531 306.332031 412.1875 C 305.8125 413.355469 305.28125 414.488281 304.742188 415.578125 C 304.199219 416.667969 303.652344 417.714844 303.09375 418.722656 C 302.539062 419.734375 301.972656 420.699219 301.398438 421.625 C 300.828125 422.550781 300.246094 423.429688 299.660156 424.269531 C 299.074219 425.109375 298.480469 425.902344 297.878906 426.65625 C 297.277344 427.40625 296.671875 428.113281 296.0625 428.773438 C 295.449219 429.433594 294.832031 430.046875 294.210938 430.617188 C 293.589844 431.1875 292.964844 431.710938 292.332031 432.1875 C 291.703125 432.664062 291.070312 433.09375 290.433594 433.476562 C 289.796875 433.859375 289.15625 434.195312 288.515625 434.484375 C 287.871094 434.769531 287.226562 435.011719 286.582031 435.203125 C 285.933594 435.394531 285.285156 435.539062 284.636719 435.636719 C 283.988281 435.730469 283.339844 435.78125 282.691406 435.78125 C 282.039062 435.78125 281.390625 435.730469 280.742188 435.636719 C 280.09375 435.539062 279.445312 435.394531 278.800781 435.203125 C 278.152344 435.011719 277.507812 434.769531 276.867188 434.484375 C 276.222656 434.195312 275.582031 433.859375 274.945312 433.476562 C 274.308594 433.09375 273.675781 432.664062 273.046875 432.1875 C 272.414062 431.710938 271.789062 431.1875 271.167969 430.617188 C 270.546875 430.046875 269.929688 429.433594 269.320312 428.773438 C 268.707031 428.113281 268.101562 427.40625 267.5 426.65625 C 266.902344 425.902344 266.308594 425.109375 265.71875 424.269531 C 265.132812 423.429688 264.554688 422.550781 263.980469 421.625 C 263.40625 420.699219 262.84375 419.734375 262.285156 418.722656 C 261.726562 417.714844 261.179688 416.667969 260.640625 415.578125 C 260.097656 414.488281 259.570312 413.355469 259.046875 412.1875 C 258.523438 411.019531 258.011719 409.8125 257.511719 408.570312 C 257.007812 407.324219 256.515625 406.042969 256.035156 404.726562 C 255.554688 403.40625 255.085938 402.054688 254.625 400.667969 C 254.164062 399.28125 253.71875 397.859375 253.28125 396.40625 C 252.84375 394.953125 252.421875 393.46875 252.007812 391.949219 C 251.597656 390.433594 251.199219 388.886719 250.8125 387.3125 C 250.421875 385.738281 250.050781 384.132812 249.6875 382.5 C 249.328125 380.871094 248.980469 379.214844 248.648438 377.53125 C 248.3125 375.847656 247.992188 374.140625 247.6875 372.410156 C 247.378906 370.679688 247.089844 368.929688 246.8125 367.15625 C 246.53125 365.382812 246.269531 363.589844 246.019531 361.777344 C 245.773438 359.964844 245.539062 358.132812 245.320312 356.285156 C 245.101562 354.4375 244.898438 352.578125 244.710938 350.699219 C 244.519531 348.820312 244.347656 346.929688 244.1875 345.027344 C 244.03125 343.125 243.890625 341.210938 243.761719 339.289062 C 243.636719 337.363281 243.523438 335.429688 243.429688 333.488281 C 243.335938 331.550781 243.253906 329.601562 243.191406 327.648438 C 243.128906 325.699219 243.078125 323.742188 243.046875 321.78125 C 243.015625 319.824219 243 317.863281 243 315.898438 C 243 313.9375 243.015625 311.976562 243.046875 310.019531 C 243.078125 308.058594 243.128906 306.101562 243.191406 304.148438 C 243.253906 302.195312 243.335938 300.25 243.429688 298.308594 C 243.523438 296.371094 243.636719 294.4375 243.761719 292.511719 C 243.890625 290.589844 244.03125 288.675781 244.1875 286.773438 C 244.347656 284.867188 244.519531 282.976562 244.710938 281.101562 C 244.898438 279.222656 245.101562 277.359375 245.320312 275.511719 C 245.539062 273.667969 245.773438 271.835938 246.019531 270.023438 C 246.269531 268.210938 246.53125 266.417969 246.8125 264.644531 C 247.089844 262.871094 247.378906 261.121094 247.6875 259.390625 C 247.992188 257.660156 248.3125 255.953125 248.648438 254.269531 C 248.980469 252.585938 249.328125 250.929688 249.6875 249.296875 C 250.050781 247.667969 250.421875 246.0625 250.8125 244.488281 C 251.199219 242.910156 251.597656 241.367188 252.007812 239.847656 C 252.421875 238.332031 252.84375 236.847656 253.28125 235.394531 C 253.71875 233.941406 254.164062 232.519531 254.625 231.132812 C 255.085938 229.746094 255.554688 228.390625 256.035156 227.074219 C 256.515625 225.757812 257.007812 224.476562 257.511719 223.230469 C 258.011719 221.988281 258.523438 220.78125 259.046875 219.613281 C 259.570312 218.441406 260.097656 217.3125 260.640625 216.222656 C 261.179688 215.132812 261.726562 214.085938 262.285156 213.074219 C 262.84375 212.066406 263.40625 211.101562 263.980469 210.175781 C 264.554688 209.25 265.132812 208.367188 265.71875 207.53125 C 266.308594 206.691406 266.902344 205.894531 267.5 205.144531 C 268.101562 204.394531 268.707031 203.6875 269.320312 203.027344 C 269.929688 202.367188 270.546875 201.75 271.167969 201.183594 C 271.789062 200.613281 272.414062 200.089844 273.046875 199.613281 C 273.675781 199.136719 274.308594 198.707031 274.945312 198.324219 C 275.582031 197.941406 276.222656 197.605469 276.867188 197.316406 C 277.507812 197.03125 278.152344 196.789062 278.800781 196.597656 C 279.445312 196.40625 280.09375 196.261719 280.742188 196.164062 C 281.390625 196.066406 282.039062 196.019531 282.691406 196.019531 C 283.339844 196.019531 283.988281 196.066406 284.636719 196.164062 C 285.285156 196.261719 285.933594 196.40625 286.582031 196.597656 C 287.226562 196.789062 287.871094 197.03125 288.515625 197.316406 C 289.15625 197.605469 289.796875 197.941406 290.433594 198.324219 C 291.070312 198.707031 291.703125 199.136719 292.332031 199.613281 C 292.964844 200.089844 293.589844 200.613281 294.210938 201.183594 C 294.832031 201.75 295.449219 202.367188 296.0625 203.027344 C 296.671875 203.6875 297.277344 204.394531 297.878906 205.144531 C 298.480469 205.894531 299.074219 206.691406 299.660156 207.53125 C 300.246094 208.367188 300.828125 209.25 301.398438 210.175781 C 301.972656 211.101562 302.539062 212.066406 303.09375 213.074219 C 303.652344 214.085938 304.199219 215.132812 304.742188 216.222656 C 305.28125 217.3125 305.8125 218.441406 306.332031 219.613281 C 306.855469 220.78125 307.367188 221.988281 307.867188 223.230469 C 308.371094 224.476562 308.863281 225.757812 309.34375 227.074219 C 309.824219 228.390625 310.296875 229.746094 310.753906 231.132812 C 311.214844 232.519531 311.660156 233.941406 312.097656 235.394531 C 312.535156 236.847656 312.957031 238.332031 313.371094 239.847656 C 313.78125 241.367188 314.183594 242.910156 314.570312 244.488281 C 314.957031 246.0625 315.332031 247.667969 315.691406 249.296875 C 316.050781 250.929688 316.398438 252.585938 316.734375 254.269531 C 317.066406 255.953125 317.386719 257.660156 317.695312 259.390625 C 318 261.121094 318.292969 262.871094 318.570312 264.644531 C 318.847656 266.417969 319.109375 268.210938 319.359375 270.023438 C 319.605469 271.835938 319.839844 273.667969 320.058594 275.511719 C 320.277344 277.359375 320.480469 279.222656 320.671875 281.101562 C 320.859375 282.976562 321.03125 284.867188 321.191406 286.773438 C 321.347656 288.675781 321.492188 290.589844 321.617188 292.511719 C 321.742188 294.4375 321.855469 296.371094 321.949219 298.308594 C 322.046875 300.25 322.125 302.195312 322.1875 304.148438 C 322.253906 306.101562 322.300781 308.058594 322.332031 310.019531 C 322.363281 311.976562 322.378906 313.9375 322.378906 315.898438 Z M 322.378906 315.898438 " fill-opacity="1" fill-rule="nonzero"/><path fill="#d8d8d8" d="M 568.621094 315.898438 C 568.621094 317.863281 568.605469 319.824219 568.570312 321.78125 C 568.539062 323.742188 568.492188 325.699219 568.429688 327.648438 C 568.363281 329.601562 568.285156 331.550781 568.191406 333.488281 C 568.09375 335.429688 567.984375 337.363281 567.855469 339.289062 C 567.730469 341.210938 567.589844 343.125 567.429688 345.027344 C 567.273438 346.929688 567.097656 348.820312 566.910156 350.699219 C 566.722656 352.578125 566.519531 354.4375 566.300781 356.285156 C 566.082031 358.132812 565.847656 359.964844 565.597656 361.777344 C 565.351562 363.589844 565.085938 365.382812 564.808594 367.15625 C 564.53125 368.929688 564.238281 370.679688 563.933594 372.410156 C 563.628906 374.140625 563.308594 375.847656 562.972656 377.53125 C 562.640625 379.214844 562.292969 380.871094 561.929688 382.5 C 561.570312 384.132812 561.195312 385.738281 560.808594 387.3125 C 560.421875 388.886719 560.023438 390.433594 559.609375 391.949219 C 559.199219 393.46875 558.773438 394.953125 558.339844 396.40625 C 557.902344 397.859375 557.453125 399.28125 556.996094 400.667969 C 556.535156 402.054688 556.066406 403.40625 555.585938 404.726562 C 555.101562 406.042969 554.609375 407.324219 554.109375 408.570312 C 553.605469 409.8125 553.09375 411.019531 552.574219 412.1875 C 552.050781 413.355469 551.519531 414.488281 550.980469 415.578125 C 550.441406 416.667969 549.890625 417.714844 549.335938 418.722656 C 548.777344 419.734375 548.210938 420.699219 547.640625 421.625 C 547.066406 422.550781 546.488281 423.429688 545.898438 424.269531 C 545.3125 425.109375 544.71875 425.902344 544.117188 426.65625 C 543.519531 427.40625 542.914062 428.113281 542.300781 428.773438 C 541.691406 429.433594 541.074219 430.046875 540.453125 430.617188 C 539.828125 431.1875 539.203125 431.710938 538.574219 432.1875 C 537.945312 432.664062 537.308594 433.09375 536.671875 433.476562 C 536.035156 433.859375 535.394531 434.195312 534.753906 434.484375 C 534.109375 434.769531 533.464844 435.011719 532.820312 435.203125 C 532.175781 435.394531 531.527344 435.539062 530.878906 435.636719 C 530.230469 435.730469 529.578125 435.78125 528.929688 435.78125 C 528.28125 435.78125 527.632812 435.730469 526.984375 435.636719 C 526.332031 435.539062 525.6875 435.394531 525.039062 435.203125 C 524.394531 435.011719 523.75 434.769531 523.105469 434.484375 C 522.464844 434.195312 521.824219 433.859375 521.1875 433.476562 C 520.550781 433.09375 519.917969 432.664062 519.285156 432.1875 C 518.65625 431.710938 518.03125 431.1875 517.410156 430.617188 C 516.785156 430.046875 516.171875 429.433594 515.558594 428.773438 C 514.945312 428.113281 514.339844 427.40625 513.742188 426.65625 C 513.140625 425.902344 512.546875 425.109375 511.960938 424.269531 C 511.375 423.429688 510.792969 422.550781 510.21875 421.625 C 509.648438 420.699219 509.082031 419.734375 508.523438 418.722656 C 507.96875 417.714844 507.417969 416.667969 506.878906 415.578125 C 506.339844 414.488281 505.808594 413.355469 505.285156 412.1875 C 504.765625 411.019531 504.253906 409.8125 503.75 408.570312 C 503.25 407.324219 502.757812 406.042969 502.277344 404.726562 C 501.792969 403.40625 501.324219 402.054688 500.863281 400.667969 C 500.40625 399.28125 499.957031 397.859375 499.523438 396.40625 C 499.085938 394.953125 498.660156 393.46875 498.25 391.949219 C 497.835938 390.433594 497.4375 388.886719 497.050781 387.3125 C 496.664062 385.738281 496.289062 384.132812 495.929688 382.5 C 495.566406 380.871094 495.21875 379.214844 494.886719 377.53125 C 494.554688 375.847656 494.234375 374.140625 493.925781 372.410156 C 493.621094 370.679688 493.328125 368.929688 493.050781 367.15625 C 492.773438 365.382812 492.511719 363.589844 492.261719 361.777344 C 492.011719 359.964844 491.777344 358.132812 491.558594 356.285156 C 491.339844 354.4375 491.136719 352.578125 490.949219 350.699219 C 490.761719 348.820312 490.585938 346.929688 490.429688 345.027344 C 490.273438 343.125 490.128906 341.210938 490.003906 339.289062 C 489.875 337.363281 489.765625 335.429688 489.667969 333.488281 C 489.574219 331.550781 489.496094 329.601562 489.429688 327.648438 C 489.367188 325.699219 489.320312 323.742188 489.289062 321.78125 C 489.257812 319.824219 489.238281 317.863281 489.238281 315.898438 C 489.238281 313.9375 489.257812 311.976562 489.289062 310.019531 C 489.320312 308.058594 489.367188 306.101562 489.429688 304.148438 C 489.496094 302.195312 489.574219 300.25 489.667969 298.308594 C 489.765625 296.371094 489.875 294.4375 490.003906 292.511719 C 490.128906 290.589844 490.273438 288.675781 490.429688 286.773438 C 490.585938 284.867188 490.761719 282.976562 490.949219 281.101562 C 491.136719 279.222656 491.339844 277.359375 491.558594 275.511719 C 491.777344 273.667969 492.011719 271.835938 492.261719 270.023438 C 492.511719 268.210938 492.773438 266.417969 493.050781 264.644531 C 493.328125 262.871094 493.621094 261.121094 493.925781 259.390625 C 494.234375 257.660156 494.554688 255.953125 494.886719 254.269531 C 495.21875 252.585938 495.566406 250.929688 495.929688 249.296875 C 496.289062 247.667969 496.664062 246.0625 497.050781 244.488281 C 497.4375 242.910156 497.835938 241.367188 498.25 239.847656 C 498.660156 238.332031 499.085938 236.847656 499.523438 235.394531 C 499.957031 233.941406 500.40625 232.519531 500.863281 231.132812 C 501.324219 229.746094 501.792969 228.390625 502.277344 227.074219 C 502.757812 225.757812 503.25 224.476562 503.75 223.230469 C 504.253906 221.988281 504.765625 220.78125 505.285156 219.613281 C 505.808594 218.441406 506.339844 217.3125 506.878906 216.222656 C 507.417969 215.132812 507.96875 214.085938 508.523438 213.074219 C 509.082031 212.066406 509.648438 211.101562 510.21875 210.175781 C 510.792969 209.25 511.375 208.367188 511.960938 207.53125 C 512.546875 206.691406 513.140625 205.894531 513.742188 205.144531 C 514.339844 204.394531 514.945312 203.6875 515.558594 203.027344 C 516.171875 202.367188 516.785156 201.75 517.410156 201.183594 C 518.03125 200.613281 518.65625 200.089844 519.285156 199.613281 C 519.917969 199.136719 520.550781 198.707031 521.1875 198.324219 C 521.824219 197.941406 522.464844 197.605469 523.105469 197.316406 C 523.75 197.03125 524.394531 196.789062 525.039062 196.597656 C 525.6875 196.40625 526.332031 196.261719 526.984375 196.164062 C 527.632812 196.066406 528.28125 196.019531 528.929688 196.019531 C 529.578125 196.019531 530.230469 196.066406 530.878906 196.164062 C 531.527344 196.261719 532.175781 196.40625 532.820312 196.597656 C 533.464844 196.789062 534.109375 197.03125 534.753906 197.316406 C 535.394531 197.605469 536.035156 197.941406 536.671875 198.324219 C 537.308594 198.707031 537.945312 199.136719 538.574219 199.613281 C 539.203125 200.089844 539.828125 200.613281 540.453125 201.183594 C 541.074219 201.75 541.691406 202.367188 542.300781 203.027344 C 542.914062 203.6875 543.519531 204.394531 544.117188 205.144531 C 544.71875 205.894531 545.3125 206.691406 545.898438 207.53125 C 546.488281 208.367188 547.066406 209.25 547.640625 210.175781 C 548.210938 211.101562 548.777344 212.066406 549.335938 213.074219 C 549.890625 214.085938 550.441406 215.132812 550.980469 216.222656 C 551.519531 217.3125 552.050781 218.441406 552.574219 219.613281 C 553.09375 220.78125 553.605469 221.988281 554.109375 223.230469 C 554.609375 224.476562 555.101562 225.757812 555.585938 227.074219 C 556.066406 228.390625 556.535156 229.746094 556.996094 231.132812 C 557.453125 232.519531 557.902344 233.941406 558.339844 235.394531 C 558.773438 236.847656 559.199219 238.332031 559.609375 239.847656 C 560.023438 241.367188 560.421875 242.910156 560.808594 244.488281 C 561.195312 246.0625 561.570312 247.667969 561.929688 249.296875 C 562.292969 250.929688 562.640625 252.585938 562.972656 254.269531 C 563.308594 255.953125 563.628906 257.660156 563.933594 259.390625 C 564.238281 261.121094 564.53125 262.871094 564.808594 264.644531 C 565.085938 266.417969 565.351562 268.210938 565.597656 270.023438 C 565.847656 271.835938 566.082031 273.667969 566.300781 275.511719 C 566.519531 277.359375 566.722656 279.222656 566.910156 281.101562 C 567.097656 282.976562 567.273438 284.867188 567.429688 286.773438 C 567.589844 288.675781 567.730469 290.589844 567.855469 292.511719 C 567.984375 294.4375 568.09375 296.371094 568.191406 298.308594 C 568.285156 300.25 568.363281 302.195312 568.429688 304.148438 C 568.492188 306.101562 568.539062 308.058594 568.570312 310.019531 C 568.605469 311.976562 568.621094 313.9375 568.621094 315.898438 Z M 568.621094 315.898438 " fill-opacity="1" fill-rule="nonzero"/><path fill="#d8d8d8" d="M 687.203125 472.390625 C 684.238281 468.371094 680.808594 464.800781 676.90625 461.679688 C 673.007812 458.558594 668.773438 455.992188 664.199219 453.980469 C 664.199219 453.851562 664.199219 453.726562 664.199219 453.601562 L 663.347656 453.601562 C 641.597656 444.449219 619.359375 450.554688 618.074219 450.921875 C 617.164062 451.1875 616.285156 451.542969 615.445312 451.984375 C 614.601562 452.421875 613.808594 452.941406 613.066406 453.535156 C 612.328125 454.128906 611.648438 454.789062 611.039062 455.515625 C 610.425781 456.242188 609.890625 457.023438 609.429688 457.855469 C 608.96875 458.6875 608.59375 459.554688 608.304688 460.460938 C 608.015625 461.367188 607.816406 462.289062 607.707031 463.234375 C 607.597656 464.179688 607.582031 465.125 607.65625 466.074219 C 607.734375 467.019531 607.898438 467.949219 608.15625 468.867188 C 608.414062 469.78125 608.761719 470.660156 609.191406 471.507812 C 609.621094 472.355469 610.128906 473.15625 610.714844 473.902344 C 611.300781 474.652344 611.953125 475.335938 612.675781 475.953125 C 613.394531 476.574219 614.167969 477.121094 614.996094 477.589844 C 615.820312 478.058594 616.6875 478.441406 617.589844 478.742188 C 618.488281 479.042969 619.414062 479.253906 620.355469 479.371094 C 621.296875 479.492188 622.242188 479.519531 623.191406 479.453125 C 624.140625 479.386719 625.074219 479.230469 625.992188 478.984375 C 628.546875 478.351562 631.136719 477.957031 633.765625 477.796875 C 621.636719 593.308594 523.671875 683.640625 405 683.640625 C 286.328125 683.640625 188.363281 593.308594 176.230469 477.796875 C 178.855469 477.957031 181.441406 478.351562 183.996094 478.980469 C 184.914062 479.242188 185.851562 479.40625 186.808594 479.484375 C 187.761719 479.558594 188.714844 479.539062 189.664062 479.429688 C 190.613281 479.316406 191.542969 479.113281 192.457031 478.816406 C 193.367188 478.523438 194.238281 478.140625 195.074219 477.671875 C 195.910156 477.207031 196.691406 476.660156 197.417969 476.039062 C 198.144531 475.417969 198.808594 474.734375 199.398438 473.984375 C 199.992188 473.230469 200.507812 472.429688 200.941406 471.578125 C 201.378906 470.726562 201.726562 469.839844 201.984375 468.917969 C 202.246094 467.996094 202.414062 467.058594 202.488281 466.105469 C 202.566406 465.152344 202.546875 464.199219 202.4375 463.25 C 202.324219 462.296875 202.121094 461.367188 201.828125 460.457031 C 201.53125 459.546875 201.152344 458.671875 200.683594 457.835938 C 200.21875 457.003906 199.675781 456.21875 199.054688 455.492188 C 198.433594 454.761719 197.746094 454.101562 196.996094 453.507812 C 196.246094 452.914062 195.445312 452.402344 194.59375 451.964844 C 193.738281 451.53125 192.851562 451.183594 191.933594 450.921875 C 190.648438 450.554688 168.40625 444.441406 146.660156 453.601562 L 145.800781 453.601562 C 145.800781 453.726562 145.800781 453.851562 145.800781 453.980469 C 141.226562 455.992188 136.992188 458.558594 133.09375 461.679688 C 129.191406 464.800781 125.761719 468.371094 122.796875 472.390625 C 122.21875 473.15625 121.722656 473.972656 121.308594 474.835938 C 120.894531 475.699219 120.566406 476.59375 120.328125 477.523438 C 120.089844 478.449219 119.941406 479.394531 119.890625 480.351562 C 119.835938 481.308594 119.878906 482.261719 120.011719 483.207031 C 120.148438 484.15625 120.371094 485.082031 120.691406 485.988281 C 121.007812 486.890625 121.410156 487.757812 121.898438 488.582031 C 122.386719 489.40625 122.949219 490.175781 123.589844 490.890625 C 124.230469 491.601562 124.933594 492.246094 125.699219 492.820312 C 126.464844 493.398438 127.28125 493.890625 128.144531 494.304688 C 129.007812 494.71875 129.90625 495.046875 130.832031 495.28125 C 131.761719 495.519531 132.703125 495.664062 133.660156 495.714844 C 134.617188 495.769531 135.570312 495.726562 136.519531 495.589844 C 137.46875 495.453125 138.394531 495.226562 139.296875 494.90625 C 140.203125 494.589844 141.066406 494.183594 141.890625 493.695312 C 142.714844 493.207031 143.480469 492.640625 144.195312 492 C 144.90625 491.359375 145.550781 490.65625 146.125 489.886719 C 146.722656 489.097656 147.359375 488.335938 148.03125 487.609375 C 164.742188 614.519531 273.601562 712.800781 405 712.800781 C 536.398438 712.800781 645.261719 614.519531 661.96875 487.609375 C 662.617188 488.328125 663.261719 489.066406 663.875 489.886719 C 664.449219 490.65625 665.09375 491.359375 665.804688 492 C 666.519531 492.640625 667.285156 493.207031 668.109375 493.695312 C 668.933594 494.1875 669.796875 494.589844 670.703125 494.910156 C 671.605469 495.226562 672.53125 495.457031 673.480469 495.59375 C 674.429688 495.730469 675.382812 495.769531 676.339844 495.71875 C 677.296875 495.667969 678.238281 495.523438 679.167969 495.285156 C 680.097656 495.046875 680.992188 494.722656 681.855469 494.308594 C 682.722656 493.894531 683.535156 493.398438 684.304688 492.824219 C 685.070312 492.25 685.773438 491.605469 686.414062 490.890625 C 687.050781 490.179688 687.617188 489.410156 688.105469 488.582031 C 688.59375 487.757812 688.996094 486.894531 689.3125 485.988281 C 689.628906 485.085938 689.855469 484.160156 689.992188 483.210938 C 690.125 482.261719 690.167969 481.308594 690.113281 480.351562 C 690.058594 479.394531 689.914062 478.453125 689.675781 477.523438 C 689.433594 476.59375 689.109375 475.699219 688.691406 474.835938 C 688.277344 473.972656 687.78125 473.15625 687.203125 472.390625 Z M 687.203125 472.390625 " fill-opacity="1" fill-rule="nonzero"/></svg>